<svg
              width="40"
              height="42"
              viewBox="0 0 40 42"
              fill="none"
              xmlns="http://www.w3.org/2000/svg"
            >
              <g clip-path="url(#clip0_10_1014)">
                <path
                  fill-rule="evenodd"
                  clip-rule="evenodd"
                  d="M13.7146 1.01611C11.4582 1.01611 9.2943 1.91245 7.69881 3.50794L0 11.2067V14.7307C0 17.2204 1.06944 19.4603 2.77401 21.0161C1.06944 22.5719 0 24.8118 0 27.3015V30.8255L7.69881 38.5243C9.2943 40.1198 11.4582 41.0161 13.7146 41.0161C16.2043 41.0161 18.4442 39.9467 20 38.2421C21.5558 39.9467 23.7957 41.0161 26.2854 41.0161C28.5418 41.0161 30.7057 40.1198 32.3012 38.5243L40 30.8255V27.3015C40 24.8118 38.9306 22.5719 37.226 21.0161C38.9306 19.4603 40 17.2204 40 14.7307V11.2067L32.3012 3.50794C30.7057 1.91245 28.5418 1.01611 26.2854 1.01611C23.7957 1.01611 21.5558 2.08555 20 3.79012C18.4442 2.08555 16.2043 1.01611 13.7146 1.01611ZM25.7588 21.0161C25.6629 20.9286 25.5688 20.8387 25.4766 20.7465L20 15.2699L14.5234 20.7465C14.4312 20.8387 14.3371 20.9286 14.2412 21.0161C14.3371 21.1036 14.4312 21.1935 14.5234 21.2857L20 26.7623L25.4766 21.2857C25.5688 21.1935 25.6629 21.1036 25.7588 21.0161ZM22.2222 30.8255V32.5085C22.2222 34.7525 24.0414 36.5717 26.2854 36.5717C27.363 36.5717 28.3965 36.1436 29.1585 35.3816L35.5556 28.9845V27.3015C35.5556 25.0575 33.7364 23.2383 31.4924 23.2383C30.4148 23.2383 29.3813 23.6664 28.6193 24.4284L22.2222 30.8255ZM17.7778 30.8255L11.3807 24.4284C10.6187 23.6664 9.58524 23.2383 8.50762 23.2383C6.26359 23.2383 4.44444 25.0575 4.44444 27.3015V28.9845L10.8415 35.3816C11.6035 36.1436 12.637 36.5717 13.7146 36.5717C15.9586 36.5717 17.7778 34.7525 17.7778 32.5085V30.8255ZM17.7778 9.52373V11.2067L11.3807 17.6038C10.6187 18.3658 9.58524 18.7939 8.50762 18.7939C6.26359 18.7939 4.44444 16.9747 4.44444 14.7307V13.0477L10.8415 6.65063C11.6035 5.88864 12.637 5.46056 13.7146 5.46056C15.9586 5.46056 17.7778 7.2797 17.7778 9.52373ZM28.6193 17.6038L22.2222 11.2067V9.52373C22.2222 7.2797 24.0414 5.46056 26.2854 5.46056C27.363 5.46056 28.3965 5.88864 29.1585 6.65063L35.5556 13.0477V14.7307C35.5556 16.9747 33.7364 18.7939 31.4924 18.7939C30.4148 18.7939 29.3813 18.3658 28.6193 17.6038Z"
                  class="fill-current" style="fill-rule:evenodd"
                />
              </g>
              <defs>
                <clipPath id="clip0_10_1014">
                  <rect
                    width="40"
                    height="41"
                    fill="white"
                    transform="translate(0 0.5)"
                  />
                </clipPath>
              </defs>
              </svg>